<svg width="18" height="19" viewBox="0 0 18 19" fill="none" xmlns="http://www.w3.org/2000/svg">
<g filter="url(#filter0_d_37_13)">
<path d="M15.8492 3.24497C16.0628 3.50682 16.0477 3.89282 15.8037 4.1369C15.5596 4.38098 15.1737 4.39604 14.9119 4.18247L14.8611 4.1369L13.7538 3.02883C13.758 3.57886 13.737 4.19453 13.6594 4.75669C13.4515 6.26442 12.9632 8.09991 11.5015 9.77101C10.0473 11.4336 8.25305 12.2947 6.46442 12.6525C5.86844 12.7717 5.27858 12.8112 4.75761 12.8127L5.805 13.8609C6.06532 14.1212 6.06532 14.5432 5.805 14.8036C5.54469 15.0639 5.12273 15.0639 4.86242 14.8036L2.52939 12.4702C2.26908 12.2099 2.26908 11.7879 2.52939 11.5275L4.86242 9.19419L4.91319 9.14862C5.17501 8.93505 5.56096 8.95011 5.805 9.19419C6.04905 9.43827 6.06411 9.82427 5.85057 10.0861L5.805 10.1369L4.46664 11.4754C4.98921 11.49 5.60036 11.4657 6.20274 11.3452C7.74827 11.0361 9.26485 10.3028 10.4977 8.89341C11.7231 7.49248 12.1505 5.94349 12.3393 4.5744C12.4135 4.03627 12.4275 3.41469 12.4174 2.85695L11.1376 4.1369L11.0869 4.18247C10.825 4.39604 10.4391 4.38098 10.195 4.1369C9.951 3.89282 9.93594 3.50682 10.1495 3.24497L10.195 3.19419L12.5281 0.860858C12.7884 0.600509 13.2103 0.600509 13.4707 0.860858L15.8037 3.19419L15.8492 3.24497Z" fill="white"/>
<path d="M15.6111 3.48189C15.6965 3.61127 15.682 3.78725 15.5681 3.90116C15.4542 4.01507 15.2783 4.02957 15.1489 3.94413L15.0968 3.90116L13.3952 2.19868C13.3992 2.27789 13.4037 2.36076 13.4069 2.44673C13.432 3.10692 13.4326 3.96306 13.3295 4.71105C13.1263 6.18417 12.653 7.94794 11.2503 9.55155C9.8514 11.1508 8.12663 11.98 6.39875 12.3256C5.52651 12.5001 4.66176 12.4993 4.02016 12.4565C3.98664 12.4543 3.95355 12.4498 3.92121 12.4474L5.56943 14.0965C5.69959 14.2266 5.69959 14.4376 5.56943 14.5678C5.43928 14.698 5.2283 14.698 5.09814 14.5678L2.76512 12.2345C2.63496 12.1043 2.63496 11.8933 2.76512 11.7631L5.09814 9.4298L5.15022 9.38684C5.27959 9.30139 5.45554 9.31589 5.56943 9.4298C5.68333 9.54371 5.69783 9.71969 5.6124 9.84907L5.56943 9.90116L3.71096 11.7599C3.81847 11.7708 3.93696 11.7826 4.06442 11.7911C4.67237 11.8317 5.47398 11.8309 6.26856 11.672C7.87484 11.3506 9.4609 10.5855 10.7491 9.11275C12.0335 7.64427 12.4758 6.02366 12.6694 4.61991C12.7646 3.92951 12.7656 3.11896 12.741 2.47212C12.7357 2.33238 12.729 2.2009 12.7221 2.08085L10.9021 3.90116L10.85 3.94413C10.7206 4.02957 10.5447 4.01507 10.4308 3.90116C10.3169 3.78725 10.3024 3.61127 10.3878 3.48189L10.4308 3.4298L12.7638 1.09647C12.894 0.966297 13.1049 0.966297 13.2351 1.09647L15.5681 3.4298L15.6111 3.48189Z" fill="#0E1014"/>
</g>
<defs>
<filter id="filter0_d_37_13" x="-0.998962" y="-0.00106049" width="19.9979" height="20" filterUnits="userSpaceOnUse" color-interpolation-filters="sRGB">
<feFlood flood-opacity="0" result="BackgroundImageFix"/>
<feColorMatrix in="SourceAlpha" type="matrix" values="0 0 0 0 0 0 0 0 0 0 0 0 0 0 0 0 0 0 127 0" result="hardAlpha"/>
<feOffset dy="2"/>
<feGaussianBlur stdDeviation="1"/>
<feColorMatrix type="matrix" values="0 0 0 0 0 0 0 0 0 0 0 0 0 0 0 0 0 0 0.3 0"/>
<feBlend mode="normal" in2="BackgroundImageFix" result="effect1_dropShadow_37_13"/>
<feBlend mode="normal" in="SourceGraphic" in2="effect1_dropShadow_37_13" result="shape"/>
</filter>
</defs>
</svg>
