<svg width="19" height="19" viewBox="0 0 19 19" fill="none" xmlns="http://www.w3.org/2000/svg">
<g filter="url(#filter0_d_38_21)">
<path d="M13.754 14.8472C13.4921 15.0607 13.1061 15.0456 12.8621 14.8016C12.618 14.5575 12.6029 14.1716 12.8165 13.9098L12.8621 13.859L13.9701 12.7517C13.4201 12.7559 12.8044 12.7349 12.2423 12.6573C10.7346 12.4494 8.89906 11.9611 7.22795 10.4994C5.56541 9.04519 4.70424 7.25096 4.34645 5.46233C4.22723 4.86635 4.18773 4.27649 4.18629 3.75552L3.13811 4.80291C2.87776 5.06323 2.45575 5.06323 2.1954 4.80291C1.93505 4.5426 1.93505 4.12064 2.1954 3.86033L4.52874 1.5273C4.78909 1.26699 5.2111 1.26699 5.47145 1.5273L7.80478 3.86033L7.85035 3.9111C8.06392 4.17292 8.04886 4.55887 7.80478 4.80291C7.5607 5.04696 7.1747 5.06202 6.91285 4.84848L6.86207 4.80291L5.52353 3.46455C5.509 3.98712 5.53326 4.59827 5.65374 5.20064C5.96289 6.74618 6.69614 8.26275 8.10556 9.49565C9.50649 10.721 11.0555 11.1484 12.4246 11.3372C12.9627 11.4114 13.5843 11.4254 14.142 11.4153L12.8621 10.1355L12.8165 10.0848C12.6029 9.82295 12.618 9.437 12.8621 9.19296C13.1061 8.94891 13.4921 8.93385 13.754 9.14739L13.8048 9.19296L16.1381 11.526C16.3985 11.7863 16.3985 12.2082 16.1381 12.4686L13.8048 14.8016L13.754 14.8472Z" fill="white"/>
<path d="M13.5171 14.609C13.3877 14.6944 13.2117 14.6799 13.0978 14.566C12.9839 14.4521 12.9694 14.2762 13.0548 14.1468L13.0978 14.0947L14.8003 12.3931C14.7211 12.3971 14.6382 12.4016 14.5522 12.4048C13.892 12.4299 13.0359 12.4305 12.2879 12.3274C10.8148 12.1242 9.05102 11.6509 7.44741 10.2482C5.84814 8.84931 5.01895 7.12454 4.67333 5.39666C4.49889 4.52442 4.49968 3.65967 4.54247 3.01807C4.5447 2.98455 4.54913 2.95146 4.55158 2.91912L2.90249 4.56734C2.77232 4.6975 2.56131 4.6975 2.43114 4.56734C2.30096 4.43719 2.30096 4.22621 2.43114 4.09605L4.76447 1.76303C4.89465 1.63287 5.10565 1.63287 5.23583 1.76303L7.56916 4.09605L7.61213 4.14813C7.69757 4.2775 7.68307 4.45345 7.56916 4.56734C7.45525 4.68124 7.27927 4.69574 7.14989 4.61031L7.0978 4.56734L5.23908 2.70887C5.22814 2.81638 5.21633 2.93487 5.20783 3.06233C5.16728 3.67028 5.16803 4.47189 5.32697 5.26647C5.64832 6.87275 6.4135 8.4588 7.88622 9.747C9.35469 11.0314 10.9753 11.4737 12.3791 11.6673C13.0695 11.7625 13.88 11.7635 14.5268 11.7389C14.6666 11.7336 14.7981 11.7269 14.9181 11.72L13.0978 9.89997L13.0548 9.8479C12.9694 9.71853 12.9839 9.54257 13.0978 9.42868C13.2117 9.31479 13.3877 9.30029 13.5171 9.38572L13.5692 9.42868L15.9025 11.7617C16.0327 11.8919 16.0327 12.1028 15.9025 12.233L13.5692 14.566L13.5171 14.609Z" fill="#0E1014"/>
</g>
<defs>
<filter id="filter0_d_38_21" x="-1" y="-0.00106049" width="20" height="19.9979" filterUnits="userSpaceOnUse" color-interpolation-filters="sRGB">
<feFlood flood-opacity="0" result="BackgroundImageFix"/>
<feColorMatrix in="SourceAlpha" type="matrix" values="0 0 0 0 0 0 0 0 0 0 0 0 0 0 0 0 0 0 127 0" result="hardAlpha"/>
<feOffset dy="2"/>
<feGaussianBlur stdDeviation="1"/>
<feColorMatrix type="matrix" values="0 0 0 0 0 0 0 0 0 0 0 0 0 0 0 0 0 0 0.3 0"/>
<feBlend mode="normal" in2="BackgroundImageFix" result="effect1_dropShadow_38_21"/>
<feBlend mode="normal" in="SourceGraphic" in2="effect1_dropShadow_38_21" result="shape"/>
</filter>
</defs>
</svg>
