<svg width="19" height="19" viewBox="0 0 19 19" fill="none" xmlns="http://www.w3.org/2000/svg">
<g filter="url(#filter0_d_38_29)">
<path d="M5.24493 1.14966C5.50678 0.936116 5.89278 0.951177 6.13686 1.19522C6.38094 1.43927 6.396 1.82522 6.18243 2.08703L6.13686 2.13781L5.02879 3.24508C5.57882 3.24093 6.19449 3.26194 6.75665 3.33947C8.26438 3.5474 10.0999 4.03574 11.771 5.49739C13.4335 6.95162 14.2947 8.74586 14.6525 10.5345C14.7717 11.1305 14.8112 11.7203 14.8126 12.2413L15.8608 11.1939C16.1212 10.9336 16.5432 10.9336 16.8035 11.1939C17.0639 11.4542 17.0639 11.8762 16.8035 12.1365L14.4702 14.4695C14.2098 14.7298 13.7878 14.7298 13.5275 14.4695L11.1942 12.1365L11.1486 12.0857C10.935 11.8239 10.9501 11.4379 11.1942 11.1939C11.4382 10.9499 11.8242 10.9348 12.0861 11.1483L12.1369 11.1939L13.4754 12.5323C13.4899 12.0097 13.4657 11.3985 13.3452 10.7962C13.036 9.25063 12.3028 7.73406 10.8934 6.50116C9.49244 5.27576 7.94346 4.84841 6.57436 4.65961C6.03623 4.5854 5.41465 4.57142 4.85691 4.58149L6.13686 5.86127L6.18243 5.91205C6.396 6.17386 6.38094 6.55981 6.13686 6.80386C5.89278 7.0479 5.50678 7.06296 5.24493 6.84942L5.19415 6.80386L2.86082 4.47083C2.60047 4.21052 2.60047 3.78856 2.86082 3.52825L5.19415 1.19522L5.24493 1.14966Z" fill="white"/>
<path d="M5.48186 1.38783C5.61124 1.30239 5.78722 1.3169 5.90113 1.43079C6.01504 1.54468 6.02954 1.72064 5.9441 1.85L5.90113 1.90208L4.19865 3.60368C4.27786 3.59974 4.36073 3.59522 4.4467 3.59196C5.10688 3.56691 5.96303 3.56627 6.71102 3.66943C8.18413 3.87258 9.94791 4.3459 11.5515 5.74858C13.1508 7.1475 13.98 8.87227 14.3256 10.6001C14.5 11.4724 14.4993 12.3371 14.4565 12.9787C14.4542 13.0123 14.4498 13.0454 14.4474 13.0777L16.0964 11.4295C16.2266 11.2993 16.4376 11.2993 16.5678 11.4295C16.698 11.5596 16.698 11.7706 16.5678 11.9008L14.2345 14.2338C14.1043 14.3639 13.8933 14.3639 13.7631 14.2338L11.4298 11.9008L11.3868 11.8487C11.3014 11.7193 11.3159 11.5434 11.4298 11.4295C11.5437 11.3156 11.7197 11.3011 11.849 11.3865L11.9011 11.4295L13.7599 13.2879C13.7708 13.1804 13.7826 13.0619 13.7911 12.9345C13.8316 12.3265 13.8309 11.5249 13.672 10.7303C13.3506 9.12406 12.5854 7.53801 11.1127 6.24981C9.64424 4.96537 8.02363 4.52308 6.61988 4.32949C5.92947 4.23429 5.11893 4.23335 4.47209 4.25789C4.33235 4.26319 4.20087 4.26991 4.08082 4.27677L5.90113 6.09684L5.9441 6.14892C6.02954 6.27828 6.01504 6.45424 5.90113 6.56813C5.78722 6.68203 5.61124 6.69653 5.48186 6.61109L5.42977 6.56813L3.09644 4.23511C2.96627 4.10495 2.96627 3.89397 3.09644 3.76381L5.42977 1.43079L5.48186 1.38783Z" fill="#0E1014"/>
</g>
<defs>
<filter id="filter0_d_38_29" x="-0.00106812" y="0" width="20" height="19.9979" filterUnits="userSpaceOnUse" color-interpolation-filters="sRGB">
<feFlood flood-opacity="0" result="BackgroundImageFix"/>
<feColorMatrix in="SourceAlpha" type="matrix" values="0 0 0 0 0 0 0 0 0 0 0 0 0 0 0 0 0 0 127 0" result="hardAlpha"/>
<feOffset dy="2"/>
<feGaussianBlur stdDeviation="1"/>
<feColorMatrix type="matrix" values="0 0 0 0 0 0 0 0 0 0 0 0 0 0 0 0 0 0 0.3 0"/>
<feBlend mode="normal" in2="BackgroundImageFix" result="effect1_dropShadow_38_29"/>
<feBlend mode="normal" in="SourceGraphic" in2="effect1_dropShadow_38_29" result="shape"/>
</filter>
</defs>
</svg>
