<svg width="18" height="20" viewBox="0 0 18 20" fill="none" xmlns="http://www.w3.org/2000/svg">
<g filter="url(#filter0_d_38_37)">
<path d="M2.15072 12.7529C1.93718 12.4911 1.95225 12.1051 2.19629 11.861C2.44034 11.6169 2.82628 11.6018 3.0881 11.8154L3.13887 11.861L4.24615 12.9691C4.242 12.419 4.26301 11.8034 4.34054 11.2412C4.54847 9.73347 5.03681 7.89798 6.49846 6.22687C7.95269 4.56433 9.74692 3.70316 11.5355 3.34536C12.1315 3.22615 12.7214 3.18665 13.2424 3.18521L12.195 2.13703C11.9347 1.87668 11.9347 1.45467 12.195 1.19432C12.4553 0.933971 12.8772 0.933971 13.1376 1.19432L15.4706 3.52765C15.7309 3.788 15.7309 4.21001 15.4706 4.47036L13.1376 6.80369L13.0868 6.84927C12.825 7.06283 12.439 7.04777 12.195 6.80369C11.9509 6.55962 11.9359 6.17362 12.1494 5.91177L12.195 5.86099L13.5333 4.52245C13.0108 4.50791 12.3996 4.53218 11.7972 4.65265C10.2517 4.9618 8.73512 5.69506 7.50223 7.10448C6.27683 8.50541 5.84948 10.0544 5.66068 11.4235C5.58647 11.9616 5.57249 12.5832 5.58256 13.1409L6.86234 11.861L6.91311 11.8154C7.17493 11.6018 7.56088 11.6169 7.80492 11.861C8.04897 12.1051 8.06403 12.4911 7.85049 12.7529L7.80492 12.8037L5.4719 15.137C5.21158 15.3974 4.78963 15.3974 4.52931 15.137L2.19629 12.8037L2.15072 12.7529Z" fill="white"/>
<path d="M2.38889 12.516C2.30346 12.3866 2.31796 12.2106 2.43186 12.0967C2.54575 11.9828 2.7217 11.9683 2.85107 12.0538L2.90315 12.0967L4.60475 13.7992C4.6008 13.72 4.59629 13.6371 4.59303 13.5511C4.56798 12.891 4.56734 12.0348 4.67049 11.2868C4.87365 9.81371 5.34697 8.04994 6.74965 6.44633C8.14857 4.84705 9.87334 4.01786 11.6012 3.67224C12.4735 3.4978 13.3382 3.4986 13.9798 3.54138C14.0133 3.54362 14.0464 3.54805 14.0788 3.5505L12.4305 1.90141C12.3004 1.77123 12.3004 1.56023 12.4305 1.43005C12.5607 1.29988 12.7717 1.29988 12.9018 1.43005L15.2349 3.76339C15.365 3.89356 15.365 4.10457 15.2349 4.23474L12.9018 6.56808L12.8498 6.61104C12.7204 6.69649 12.5444 6.68198 12.4305 6.56808C12.3166 6.45417 12.3021 6.27819 12.3876 6.1488L12.4305 6.09672L14.289 4.238C14.1815 4.22706 14.063 4.21525 13.9355 4.20675C13.3276 4.1662 12.526 4.16695 11.7314 4.32589C10.1251 4.64723 8.53907 5.41241 7.25088 6.88513C5.96643 8.35361 5.52415 9.97422 5.33056 11.378C5.23536 12.0684 5.23442 12.8789 5.25896 13.5258C5.26426 13.6655 5.27098 13.797 5.27784 13.917L7.09791 12.0967L7.14998 12.0538C7.27935 11.9683 7.45531 11.9828 7.5692 12.0967C7.68309 12.2106 7.69759 12.3866 7.61216 12.516L7.5692 12.5681L5.23617 14.9014C5.10602 15.0316 4.89504 15.0316 4.76488 14.9014L2.43186 12.5681L2.38889 12.516Z" fill="#0E1014"/>
</g>
<defs>
<filter id="filter0_d_38_37" x="-0.998962" y="-0.00105286" width="19.9979" height="20" filterUnits="userSpaceOnUse" color-interpolation-filters="sRGB">
<feFlood flood-opacity="0" result="BackgroundImageFix"/>
<feColorMatrix in="SourceAlpha" type="matrix" values="0 0 0 0 0 0 0 0 0 0 0 0 0 0 0 0 0 0 127 0" result="hardAlpha"/>
<feOffset dy="2"/>
<feGaussianBlur stdDeviation="1"/>
<feColorMatrix type="matrix" values="0 0 0 0 0 0 0 0 0 0 0 0 0 0 0 0 0 0 0.3 0"/>
<feBlend mode="normal" in2="BackgroundImageFix" result="effect1_dropShadow_38_37"/>
<feBlend mode="normal" in="SourceGraphic" in2="effect1_dropShadow_38_37" result="shape"/>
</filter>
</defs>
</svg>
